<?xml version="1.0" encoding="UTF-8"?>
<svg width="2234px" height="1235px" viewBox="0 0 2234 1235" version="1.1" xmlns="http://www.w3.org/2000/svg" xmlns:xlink="http://www.w3.org/1999/xlink">
    <g id="front-figure" stroke="none" stroke-width="1" fill="none" fill-rule="evenodd">
        <g id="front-figure">
            <g id="11" transform="translate(1024.000000, 1.000000)" fill="#E12525">
                <polygon id="Path-8" points="0 433.277424 231.869916 0 582 0 424.417739 1234 73.1773932 1234 175.888134 433.277424"></polygon>
                <polygon id="Path-8" points="628 433.277424 859.869916 0 1210 0 1052.41774 1234 701.177393 1234 803.888134 433.277424"></polygon>
            </g>
            <g id="logo-with-text">
                <path d="M0,0 L960.028836,0 L960.028836,928.259526 L499.079394,928.259526 L531.66752,897.35783 L611.715813,897.35783 L719.270051,858.835845 C665.516772,862.087838 636.759675,853.005823 632.99876,831.589799 C628.062455,799.902413 635.851494,665.996817 621.365562,660.854343 C610.094481,656.853134 584.218412,699.814218 559.737487,733.747721 C562.277245,683.910225 629.515876,602.219495 575.910769,557.771154 C585.205118,557.86486 602.165307,558.41379 626.791336,559.417943 L657.584554,524.515159 C648.77024,556.391899 642.144381,580.430587 637.706979,596.631223 C642.841402,664.409079 728.302739,648.572455 755.095303,605.888175 C747.85095,573.372902 735.593951,519.297857 718.324306,443.66304 L510.057238,443.66304 L397.821938,691.733327 L0,821.347289 L0,395.478057 L72.9447086,395.478057 L72.9447086,318.648893 C116.005534,320.126334 146.66491,314.03873 164.922837,300.386079 C183.180763,286.733427 191.283034,262.08445 189.229649,226.439146 C186.8645,176.833026 158.618464,151.376781 104.491542,150.070411 C73.8938167,150.070411 39.0633029,150.070411 0,150.070411 L0,0 Z M73.4299676,210.65919 L93.7802124,210.65919 C106.360545,210.65919 113.14396,217.461744 114.130457,231.066851 C115.116954,244.671959 108.333539,253.272443 93.7802124,256.868302 L73.4299676,256.868302 L73.4299676,210.65919 Z M830.846486,761.091266 C772.245011,761.091266 724.915949,761.091266 688.859301,761.091266 C673.470335,764.069685 665.715489,777.294486 664.993998,792.778914 C664.272507,808.263343 672.304045,828.472102 685.649305,829.983273 C717.408397,830.545489 761.55746,830.545489 818.096494,829.983273 L830.846486,761.091266 Z M835.921823,743.423076 L849.883885,664.225461 C782.205943,663.699883 727.057051,663.370288 684.43721,663.236675 C671.285833,663.3623 662.550168,683.312441 662.238096,703.329875 C661.926023,723.34731 670.157297,743.423076 683.187102,743.423076 C720.943171,743.423076 771.854745,743.423076 835.921823,743.423076 Z M850.282694,558.586626 L768.474814,558.586626 C772.647582,576.79586 776.194022,593.919268 779.114132,609.956848 C780.783532,618.260263 771.737908,629.224747 751.977261,642.850301 L851.243699,642.850301 L850.282694,558.586626 Z M844.444628,458.013851 L742.458562,459.04585 L761.486174,538.200252 L844.444628,538.200252 L844.444628,458.013851 Z M592.878998,93.2386024 C662.951594,96.0715064 733.315604,131.174108 771.01466,167.16826 C765.662449,141.498271 754.375199,71.7343864 708.209593,52.2539918 C662.043987,32.7735971 600.76717,79.4552202 592.878998,93.2386024 Z M638.35187,168.233618 C675.347224,179.05012 708.239761,206.98418 723.594684,231.046809 C724.127735,216.749255 727.314193,178.325759 705.265012,161.87732 C683.215832,145.428882 644.377391,161.987581 638.35187,168.233618 Z M765.22942,212.280703 C741.341829,242.530264 703.120059,262.563411 675.057523,267.786227 C688.1143,273.636422 722.546277,290.984549 746.056772,276.702598 C769.567267,262.420648 768.763445,220.207275 765.22942,212.280703 Z M523.972047,276.515743 C551.728564,212.112561 609.715871,159.001746 656.829441,136.705795 C630.94638,132.503214 561.771195,118.039629 527.040406,154.157786 C492.309617,190.275943 513.93102,264.211977 523.972047,276.515743 Z M683.384499,400.582395 C629.126919,356.149196 594.056996,285.768894 585.611012,234.334827 C574.436893,258.056833 541.466337,320.565585 566.612236,363.906475 C591.758134,407.247366 668.789678,406.843073 683.384499,400.582395 Z M845.140788,281.121548 C788.178719,322.030187 711.119803,337.689369 659.252328,332.535447 C679.273952,349.468524 731.119362,397.494091 779.491684,384.422466 C827.864007,371.350841 847.410721,296.839445 845.140788,281.121548 Z M785.784811,97.6665402 C807.088991,164.482152 798.169244,242.608489 777.239642,290.34474 C799.530977,276.535653 861.227118,242.068454 863.743134,192.024287 C866.25915,141.98012 801.434867,100.364803 785.784811,97.6665402 Z M665.348483,306.703142 C649.240666,271.68613 648.743322,228.535426 656.829883,201.160414 C645.689669,210.138154 614.600584,232.941385 616.652354,260.373259 C618.704124,287.805134 656.681442,306.253393 665.348483,306.703142 Z M394.346123,150.859162 L394.346123,395.49564 L470.495719,395.49564 L470.495719,150.859162 L394.346123,150.859162 Z M213.94815,304.845186 L194.453433,367.814236 C230.108581,398.224475 271.186297,406.795424 317.686582,393.527085 C376.841488,373.176419 384.315403,310.403042 367.417722,275.121668 C349.781469,242.844228 308.462959,239.658466 293.111099,232.5038 C267.1952,221.205342 284.279408,204.20205 297.099164,204.20205 C310.82411,203.495562 327.543232,209.96229 347.256532,223.602234 L370.088211,163.864769 C327.527811,141.499411 287.954639,138.080353 251.368692,153.607597 C175.626212,195.193433 200.374458,266.982771 229.982643,285.732543 C251.368692,298.06801 262.252059,301.112681 282.270822,306.50631 C316.170635,314.198013 296.055291,338.634924 282.270822,338.551714 C256.718026,339.355022 233.943802,328.119512 213.94815,304.845186 Z" id="logo" fill="#E12525"></path>
                <path d="M28.3216995,870.158873 L37.7140999,870.158873 C48.1180415,870.158873 53.3199343,865.620696 53.3199343,856.544206 C53.3199343,847.467717 48.1180415,842.92954 37.7140999,842.92954 L28.3216995,842.92954 L28.3216995,870.158873 Z M28.3216995,929.252317 L0,929.252317 L0,820.045314 L45.0835217,820.045314 C57.3177864,820.045314 66.68601,823.231693 73.1884735,829.604548 C79.6909371,835.977402 82.94212,844.957199 82.94212,856.544206 C82.94212,868.131214 79.6909371,877.111011 73.1884735,883.483865 C66.68601,889.856719 57.3177864,893.043099 45.0835217,893.043099 L28.3216995,893.043099 L28.3216995,929.252317 Z M145.283666,888.697992 L132.567801,852.343937 L119.851936,888.697992 L145.283666,888.697992 Z M152.797586,910.278687 L112.338015,910.278687 L105.835584,929.252317 L75.6354049,929.252317 L117.106465,820.045314 L148.029137,820.045314 L189.500197,929.252317 L159.300017,929.252317 L152.797586,910.278687 Z M224.387034,868.855341 L229.733477,868.855341 C235.320779,868.855341 239.607524,867.696657 242.593841,865.379256 C245.580157,863.061854 247.073293,859.730639 247.073293,855.385511 C247.073293,851.040383 245.580157,847.709169 242.593841,845.391767 C239.607524,843.074366 235.320779,841.915682 229.733477,841.915682 L224.387034,841.915682 L224.387034,868.855341 Z M286.665873,929.252317 L251.408247,929.252317 L224.387034,887.249624 L224.387034,929.252317 L196.065334,929.252317 L196.065334,820.045314 L240.137367,820.045314 C246.206333,820.045314 251.504557,820.938466 256.032198,822.724796 C260.55984,824.511127 264.292679,826.94919 267.230829,830.039058 C270.16898,833.128927 272.384601,836.701534 273.877759,840.756987 C275.370917,844.81244 276.117485,849.157503 276.117485,853.792306 C276.117485,862.096328 274.11861,868.831175 270.120799,873.99705 C266.122988,879.162924 260.222693,882.663114 252.419737,884.497723 L286.665873,929.252317 Z M334.124077,844.088235 L334.124077,929.252317 L305.802378,929.252317 L305.802378,844.088235 L282.538124,844.088235 L282.538124,820.045314 L357.38833,820.045314 L357.38833,844.088235 L334.124077,844.088235 Z M418.284891,888.697992 L405.569026,852.343937 L392.853161,888.697992 L418.284891,888.697992 Z M425.798812,910.278687 L385.339241,910.278687 L378.83681,929.252317 L348.63663,929.252317 L390.10769,820.045314 L421.030362,820.045314 L462.501422,929.252317 L432.301243,929.252317 L425.798812,910.278687 Z M497.38826,820.045314 L497.38826,929.252317 L469.06656,929.252317 L469.06656,820.045314 L497.38826,820.045314 Z" id="PARTAI" fill="#E12525"></path>
                <path d="M70.6345801,982.738305 C67.2710119,980.014353 63.9074941,977.99761 60.5439258,976.688018 C57.1803576,975.378425 53.9219497,974.723639 50.7686045,974.723639 C46.7743672,974.723639 43.5159593,975.666531 40.9932831,977.552345 C38.4706069,979.438158 37.2092878,981.900155 37.2092878,984.93841 C37.2092878,987.033758 37.8399473,988.762394 39.1012854,990.124371 C40.3626235,991.486347 42.018105,992.664962 44.0677794,993.660253 C46.1174538,994.655543 48.4298722,995.519861 51.0051042,996.253233 C53.5803361,996.986605 56.129252,997.772349 58.6519282,998.610488 C68.7426329,1001.96305 76.1266056,1006.44178 80.8040677,1012.04684 C85.4815298,1017.6519 87.8202258,1024.95931 87.8202258,1033.96931 C87.8202258,1040.04582 86.7954039,1045.54603 84.7457295,1050.4701 C82.6960551,1055.39416 79.7004221,1059.61099 75.7587405,1063.1207 C71.817059,1066.6304 66.9820022,1069.35432 61.253425,1071.29251 C55.5248478,1073.23071 49.0343095,1074.19979 41.7816155,1074.19979 C26.7506699,1074.19979 12.823604,1069.74725 0,1060.84202 L13.2439838,1036.01227 C17.8688901,1040.09819 22.4411721,1043.1364 26.960967,1045.12698 C31.4807618,1047.11756 35.9479339,1048.11284 40.3626172,1048.11284 C45.4079696,1048.11284 49.1656496,1046.96042 51.6357701,1044.65553 C54.1058905,1042.35065 55.3409322,1039.7315 55.3409322,1036.79802 C55.3409322,1035.01697 55.0256024,1033.47167 54.3949334,1032.16208 C53.7642643,1030.85249 52.713165,1029.64768 51.2416039,1028.54762 C49.7700428,1027.44757 47.8517865,1026.4261 45.4867776,1025.48319 C43.1217687,1024.54029 40.2575231,1023.49263 36.8939548,1022.34019 C32.8997175,1021.08298 28.9843726,1019.69483 25.1478025,1018.1757 C21.3112325,1016.65658 17.8951597,1014.63983 14.8994817,1012.12542 C11.9038038,1009.611 9.48627536,1006.44183 7.64682397,1002.61782 C5.80737258,998.793811 4.88766068,993.948391 4.88766068,988.081416 C4.88766068,982.214442 5.85992754,976.897575 7.80449044,972.130658 C9.74905334,967.363741 12.4819115,963.277874 16.0031471,959.872933 C19.5243826,956.467992 23.8338898,953.822655 28.9317979,951.936842 C34.029706,950.051028 39.7319198,949.108136 46.0386103,949.108136 C51.9248547,949.108136 58.0737857,949.920071 64.4855877,951.543966 C70.8973897,953.167861 77.0463206,955.551284 82.9325651,958.694306 L70.6345801,982.738305 Z M121.248236,1011.65396 C121.248236,1016.3685 122.141671,1020.71628 123.928566,1024.69744 C125.715462,1028.6786 128.13299,1032.13588 131.181224,1035.06936 C134.229458,1038.00285 137.776918,1040.28151 141.823711,1041.9054 C145.870504,1043.5293 150.153734,1044.34123 154.673529,1044.34123 C159.193323,1044.34123 163.476553,1043.5293 167.523346,1041.9054 C171.570139,1040.28151 175.143877,1038.00285 178.244666,1035.06936 C181.345456,1032.13588 183.789262,1028.6786 185.576157,1024.69744 C187.363053,1020.71628 188.256487,1016.3685 188.256487,1011.65396 C188.256487,1006.93943 187.363053,1002.59165 185.576157,998.610488 C183.789262,994.629327 181.345456,991.172054 178.244666,988.238567 C175.143877,985.305079 171.570139,983.026422 167.523346,981.402528 C163.476553,979.778633 159.193323,978.966698 154.673529,978.966698 C150.153734,978.966698 145.870504,979.778633 141.823711,981.402528 C137.776918,983.026422 134.229458,985.305079 131.181224,988.238567 C128.13299,991.172054 125.715462,994.629327 123.928566,998.610488 C122.141671,1002.59165 121.248236,1006.93943 121.248236,1011.65396 Z M88.9266092,1011.65396 C88.9266092,1002.8535 90.5558131,994.655576 93.8142698,987.059939 C97.0727266,979.464302 101.592454,972.837863 107.373587,967.180423 C113.154719,961.522983 120.065697,957.096627 128.106728,953.901221 C136.147758,950.705815 145.00327,949.108136 154.673529,949.108136 C164.238676,949.108136 173.06791,950.705815 181.161496,953.901221 C189.255082,957.096627 196.218615,961.522983 202.052304,967.180423 C207.885993,972.837863 212.431997,979.464302 215.690454,987.059939 C218.948911,994.655576 220.578115,1002.8535 220.578115,1011.65396 C220.578115,1020.45443 218.948911,1028.65235 215.690454,1036.24799 C212.431997,1043.84363 207.885993,1050.47007 202.052304,1056.12751 C196.218615,1061.78495 189.255082,1066.2113 181.161496,1069.40671 C173.06791,1072.60212 164.238676,1074.19979 154.673529,1074.19979 C145.00327,1074.19979 136.147758,1072.60212 128.106728,1069.40671 C120.065697,1066.2113 113.154719,1061.78495 107.373587,1056.12751 C101.592454,1050.47007 97.0727266,1043.84363 93.8142698,1036.24799 C90.5558131,1028.65235 88.9266092,1020.45443 88.9266092,1011.65396 Z M258.105453,952.408293 L258.105453,1044.81268 L295.157075,1044.81268 L295.157075,1070.89964 L227.202825,1070.89964 L227.202825,952.408293 L258.105453,952.408293 Z M329.058085,952.408293 L329.058085,1070.89964 L298.155456,1070.89964 L298.155456,952.408293 L329.058085,952.408293 Z M371.946083,1044.81268 L379.041075,1044.81268 C384.401762,1044.81268 389.184263,1043.97456 393.388724,1042.29828 C397.593184,1040.622 401.140644,1038.31715 404.031211,1035.38366 C406.921777,1032.45018 409.129086,1028.96671 410.653203,1024.93317 C412.17732,1020.89962 412.939367,1016.47327 412.939367,1011.65396 C412.939367,1006.93943 412.151042,1002.53927 410.574369,998.453338 C408.997697,994.367409 406.764111,990.857753 403.873544,987.924266 C400.982978,984.990779 397.435518,982.68593 393.231057,981.009652 C389.026597,979.333373 384.29665,978.495247 379.041075,978.495247 L371.946083,978.495247 L371.946083,1044.81268 Z M341.043455,952.408293 L386.766732,952.408293 C394.860318,952.408293 402.454511,954.032163 409.549537,957.279953 C416.644564,960.527742 422.84605,964.849333 428.154181,970.244855 C433.462312,975.640376 437.640432,981.926326 440.688666,989.102893 C443.7369,996.279461 445.260994,1003.79641 445.260994,1011.65396 C445.260994,1019.40675 443.763177,1026.87132 440.767499,1034.04789 C437.771821,1041.22445 433.619979,1047.5366 428.311848,1052.9845 C423.003717,1058.43241 416.802231,1062.78019 409.707204,1066.02798 C402.612177,1069.27577 394.96543,1070.89964 386.766732,1070.89964 L341.043455,1070.89964 L341.043455,952.408293 Z M511.641297,1026.89755 L497.766647,987.452815 L483.891998,1026.89755 L511.641297,1026.89755 Z M519.839954,1050.31294 L475.693341,1050.31294 L468.59835,1070.89964 L435.646057,1070.89964 L480.896335,952.408293 L514.63696,952.408293 L559.887238,1070.89964 L526.934945,1070.89964 L519.839954,1050.31294 Z M591.423251,1005.36795 L597.25691,1005.36795 C603.353378,1005.36795 608.03077,1004.11076 611.289226,1001.59634 C614.547683,999.081926 616.176887,995.467505 616.176887,990.752972 C616.176887,986.038439 614.547683,982.424017 611.289226,979.909599 C608.03077,977.395182 603.353378,976.137992 597.25691,976.137992 L591.423251,976.137992 L591.423251,1005.36795 Z M659.377501,1070.89964 L620.906881,1070.89964 L591.423251,1025.32604 L591.423251,1070.89964 L560.520622,1070.89964 L560.520622,952.408293 L608.608896,952.408293 C615.230921,952.408293 621.011968,953.377377 625.952208,955.315574 C630.892449,957.253771 634.965459,959.899108 638.17136,963.251665 C641.377261,966.604222 643.79479,970.480558 645.424018,974.880789 C647.053246,979.28102 647.867848,983.995483 647.867848,989.024318 C647.867848,998.034315 645.686817,1005.34173 641.32469,1010.94679 C636.962562,1016.55184 630.524579,1020.34961 622.010547,1022.34019 L659.377501,1070.89964 Z M690.282848,952.408293 L690.282848,1070.89964 L659.380219,1070.89964 L659.380219,952.408293 L690.282848,952.408293 Z M747.360829,978.495247 L747.360829,1070.89964 L716.4582,1070.89964 L716.4582,978.495247 L691.073898,978.495247 L691.073898,952.408293 L772.745131,952.408293 L772.745131,978.495247 L747.360829,978.495247 Z M832.661109,1026.89755 L818.78646,987.452815 L804.91181,1026.89755 L832.661109,1026.89755 Z M840.859766,1050.31294 L796.713153,1050.31294 L789.618162,1070.89964 L756.665869,1070.89964 L801.916147,952.408293 L835.656772,952.408293 L880.90705,1070.89964 L847.954757,1070.89964 L840.859766,1050.31294 Z M946.814354,982.738305 C943.450786,980.014353 940.087268,977.99761 936.7237,976.688018 C933.360132,975.378425 930.101724,974.723639 926.948379,974.723639 C922.954141,974.723639 919.695734,975.666531 917.173057,977.552345 C914.650381,979.438158 913.389062,981.900155 913.389062,984.93841 C913.389062,987.033758 914.019722,988.762394 915.28106,990.124371 C916.542398,991.486347 918.197879,992.664962 920.247554,993.660253 C922.297228,994.655543 924.609646,995.519861 927.184878,996.253233 C929.76011,996.986605 932.309026,997.772349 934.831702,998.610488 C944.922407,1001.96305 952.30638,1006.44178 956.983842,1012.04684 C961.661304,1017.6519 964,1024.95931 964,1033.96931 C964,1040.04582 962.975178,1045.54603 960.925504,1050.4701 C958.875829,1055.39416 955.880196,1059.61099 951.938515,1063.1207 C947.996833,1066.6304 943.161776,1069.35432 937.433199,1071.29251 C931.704622,1073.23071 925.214084,1074.19979 917.96139,1074.19979 C902.930444,1074.19979 889.003378,1069.74725 876.179774,1060.84202 L889.423758,1036.01227 C894.048664,1040.09819 898.620946,1043.1364 903.140741,1045.12698 C907.660536,1047.11756 912.127708,1048.11284 916.542391,1048.11284 C921.587744,1048.11284 925.345424,1046.96042 927.815544,1044.65553 C930.285665,1042.35065 931.520706,1039.7315 931.520706,1036.79802 C931.520706,1035.01697 931.205377,1033.47167 930.574708,1032.16208 C929.944039,1030.85249 928.892939,1029.64768 927.421378,1028.54762 C925.949817,1027.44757 924.031561,1026.4261 921.666552,1025.48319 C919.301543,1024.54029 916.437297,1023.49263 913.073729,1022.34019 C909.079492,1021.08298 905.164147,1019.69483 901.327577,1018.1757 C897.491007,1016.65658 894.074934,1014.63983 891.079256,1012.12542 C888.083578,1009.611 885.66605,1006.44183 883.826598,1002.61782 C881.987147,998.793811 881.067435,993.948391 881.067435,988.081416 C881.067435,982.214442 882.039702,976.897575 883.984265,972.130658 C885.928828,967.363741 888.661686,963.277874 892.182921,959.872933 C895.704157,956.467992 900.013664,953.822655 905.111572,951.936842 C910.20948,950.051028 915.911694,949.108136 922.218385,949.108136 C928.104629,949.108136 934.25356,949.920071 940.665362,951.543966 C947.077164,953.167861 953.226095,955.551284 959.112339,958.694306 L946.814354,982.738305 Z" id="SOLIDARITAS" fill="#000000"></path>
                <path d="M34.6339166,1095.78926 L34.6339166,1229.32712 L0,1229.32712 L0,1095.78926 L34.6339166,1095.78926 Z M46.7041357,1229.32712 L46.7041357,1095.78926 L81.3380523,1095.78926 L145.304776,1177.43508 L145.304776,1095.78926 L179.761989,1095.78926 L179.761989,1229.32712 L145.304776,1229.32712 L81.3380523,1147.68129 L81.3380523,1229.32712 L46.7041357,1229.32712 Z M226.466124,1199.92754 L234.417789,1199.92754 C240.425743,1199.92754 245.7857,1198.98298 250.497822,1197.09384 C255.209943,1195.2047 259.185735,1192.60718 262.425318,1189.30118 C265.664901,1185.99519 268.138728,1182.06938 269.846872,1177.52364 C271.555016,1172.9779 272.409075,1167.98946 272.409075,1162.55819 C272.409075,1157.24498 271.525565,1152.28607 269.75852,1147.68129 C267.991475,1143.07651 265.488198,1139.12119 262.248615,1135.81519 C259.009031,1132.5092 255.033239,1129.91167 250.321118,1128.02253 C245.608997,1126.13339 240.30794,1125.18884 234.417789,1125.18884 L226.466124,1125.18884 L226.466124,1199.92754 Z M191.832208,1095.78926 L243.076268,1095.78926 C252.147101,1095.78926 260.658242,1097.61933 268.609946,1101.27954 C276.561651,1104.93975 283.511925,1109.81011 289.460978,1115.89078 C295.41003,1121.97144 300.092631,1129.05561 303.508918,1137.14349 C306.925206,1145.23137 308.633324,1153.70285 308.633324,1162.55819 C308.633324,1171.29546 306.954656,1179.7079 303.59727,1187.79578 C300.239884,1195.88366 295.586734,1202.99734 289.637681,1209.13704 C283.688628,1215.27675 276.738354,1220.17663 268.78665,1223.83684 C260.834946,1227.49704 252.264904,1229.32712 243.076268,1229.32712 L191.832208,1229.32712 L191.832208,1095.78926 Z M345.088648,1162.55819 C345.088648,1167.87139 346.089959,1172.77127 348.09261,1177.25798 C350.095262,1181.74468 352.804691,1185.64098 356.220978,1188.94697 C359.637266,1192.25296 363.613059,1194.82097 368.148475,1196.65108 C372.683892,1198.48118 377.484293,1199.39622 382.549823,1199.39622 C387.615353,1199.39622 392.415754,1198.48118 396.951171,1196.65108 C401.486587,1194.82097 405.49183,1192.25296 408.96702,1188.94697 C412.442209,1185.64098 415.181088,1181.74468 417.18374,1177.25798 C419.186391,1172.77127 420.187702,1167.87139 420.187702,1162.55819 C420.187702,1157.24498 419.186391,1152.3451 417.18374,1147.8584 C415.181088,1143.37169 412.442209,1139.4754 408.96702,1136.16941 C405.49183,1132.86341 401.486587,1130.2954 396.951171,1128.4653 C392.415754,1126.63519 387.615353,1125.72016 382.549823,1125.72016 C377.484293,1125.72016 372.683892,1126.63519 368.148475,1128.4653 C363.613059,1130.2954 359.637266,1132.86341 356.220978,1136.16941 C352.804691,1139.4754 350.095262,1143.37169 348.09261,1147.8584 C346.089959,1152.3451 345.088648,1157.24498 345.088648,1162.55819 Z M308.864399,1162.55819 C308.864399,1152.64021 310.690318,1143.40127 314.342212,1134.84111 C317.994106,1126.28095 323.05956,1118.81306 329.538726,1112.43721 C336.017893,1106.06137 343.763325,1101.07293 352.775257,1097.47176 C361.787189,1093.87059 371.711945,1092.07003 382.549823,1092.07003 C393.269898,1092.07003 403.165204,1093.87059 412.236037,1097.47176 C421.30687,1101.07293 429.111204,1106.06137 435.649272,1112.43721 C442.18734,1118.81306 447.282244,1126.28095 450.934138,1134.84111 C454.586032,1143.40127 456.411951,1152.64021 456.411951,1162.55819 C456.411951,1172.47617 454.586032,1181.7151 450.934138,1190.27526 C447.282244,1198.83543 442.18734,1206.30332 435.649272,1212.67916 C429.111204,1219.05501 421.30687,1224.04344 412.236037,1227.64461 C403.165204,1231.24579 393.269898,1233.04634 382.549823,1233.04634 C371.711945,1233.04634 361.787189,1231.24579 352.775257,1227.64461 C343.763325,1224.04344 336.017893,1219.05501 329.538726,1212.67916 C323.05956,1206.30332 317.994106,1198.83543 314.342212,1190.27526 C310.690318,1181.7151 308.864399,1172.47617 308.864399,1162.55819 Z M462.474246,1229.32712 L462.474246,1095.78926 L497.108163,1095.78926 L561.074886,1177.43508 L561.074886,1095.78926 L595.532099,1095.78926 L595.532099,1229.32712 L561.074886,1229.32712 L497.108163,1147.68129 L497.108163,1229.32712 L462.474246,1229.32712 Z M683.408186,1125.18884 L642.236235,1125.18884 L642.236235,1147.50418 L681.111039,1147.50418 L681.111039,1176.90377 L642.236235,1176.90377 L642.236235,1199.92754 L683.408186,1199.92754 L683.408186,1229.32712 L607.602318,1229.32712 L607.602318,1095.78926 L683.408186,1095.78926 L683.408186,1125.18884 Z M765.629757,1129.9707 C761.86006,1126.90085 758.09042,1124.62801 754.320723,1123.15212 C750.551026,1121.67623 746.899187,1120.9383 743.365096,1120.9383 C738.888581,1120.9383 735.236742,1122.00092 732.40947,1124.1262 C729.582197,1126.25148 728.168582,1129.02612 728.168582,1132.45018 C728.168582,1134.8116 728.875389,1136.75975 730.289026,1138.29468 C731.702662,1139.8296 733.558032,1141.15788 735.855191,1142.27956 C738.15235,1143.40124 740.743978,1144.37531 743.630152,1145.20181 C746.516326,1146.02831 749.373007,1146.91383 752.200279,1147.8584 C763.50937,1151.63667 771.784908,1156.68414 777.027143,1163.00095 C782.269377,1169.31776 784.890455,1177.5531 784.890455,1187.70723 C784.890455,1194.55536 783.741893,1200.754 781.444734,1206.30335 C779.147575,1211.8527 775.790239,1216.60499 771.372626,1220.56038 C766.955012,1224.51576 761.536154,1227.58557 755.115889,1229.76988 C748.695625,1231.9542 741.421397,1233.04634 733.292988,1233.04634 C716.447155,1233.04634 700.838488,1228.02839 686.466519,1217.99234 L701.309626,1190.00961 C706.492959,1194.61438 711.617314,1198.0384 716.682844,1200.28175 C721.748374,1202.5251 726.754928,1203.64676 731.702655,1203.64676 C737.3572,1203.64676 741.568595,1202.348 744.336966,1199.75043 C747.105338,1197.15286 748.489502,1194.20113 748.489502,1190.89513 C748.489502,1188.88792 748.136099,1187.1464 747.42928,1185.67051 C746.722462,1184.19462 745.54445,1182.83682 743.895207,1181.59707 C742.245965,1180.35733 740.096092,1179.20615 737.445524,1178.14351 C734.794956,1177.08087 731.584871,1175.90017 727.815175,1174.60139 C723.33866,1173.18454 718.950563,1171.62012 714.650752,1169.90808 C710.350942,1168.19605 706.522401,1165.92321 703.165015,1163.08951 C699.807628,1160.2558 697.098199,1156.6842 695.036646,1152.3746 C692.975093,1148.065 691.944332,1142.60429 691.944332,1135.9923 C691.944332,1129.38031 693.033994,1123.38829 695.21335,1118.01605 C697.392706,1112.64381 700.455539,1108.0391 704.40194,1104.20179 C708.348342,1100.36447 713.178193,1097.38322 718.89164,1095.25794 C724.605087,1093.13266 730.995805,1092.07003 738.063987,1092.07003 C744.660956,1092.07003 751.55233,1092.98507 758.738314,1094.81517 C765.924299,1096.64528 772.815673,1099.33136 779.412642,1102.87349 L765.629757,1129.9707 Z M825.409963,1095.78926 L825.409963,1229.32712 L790.776047,1229.32712 L790.776047,1095.78926 L825.409963,1095.78926 Z M909.928681,1179.73746 L894.37876,1135.28388 L878.828838,1179.73746 L909.928681,1179.73746 Z M919.117271,1206.12624 L869.640248,1206.12624 L861.688583,1229.32712 L824.757519,1229.32712 L875.471468,1095.78926 L913.286051,1095.78926 L964,1229.32712 L927.068936,1229.32712 L919.117271,1206.12624 Z" id="INDONESIA" fill="#E12525"></path>
            </g>
            <path d="M1096.68,1214.72 L1100.28,1214.72 C1103.00001,1214.72 1105.42666,1214.29334 1107.56,1213.44 C1109.69334,1212.58666 1111.49333,1211.41334 1112.96,1209.92 C1114.42667,1208.42666 1115.54666,1206.65334 1116.32,1204.6 C1117.09334,1202.54666 1117.48,1200.29335 1117.48,1197.84 C1117.48,1195.43999 1117.08,1193.20001 1116.28,1191.12 C1115.48,1189.03999 1114.34667,1187.25334 1112.88,1185.76 C1111.41333,1184.26666 1109.61334,1183.09334 1107.48,1182.24 C1105.34666,1181.38666 1102.94668,1180.96 1100.28,1180.96 L1096.68,1180.96 L1096.68,1214.72 Z M1081,1167.68 L1104.2,1167.68 C1108.30669,1167.68 1112.15998,1168.50666 1115.76,1170.16 C1119.36002,1171.81334 1122.50665,1174.01332 1125.2,1176.76 C1127.89335,1179.50668 1130.01333,1182.70665 1131.56,1186.36 C1133.10667,1190.01335 1133.88,1193.83998 1133.88,1197.84 C1133.88,1201.78669 1133.12001,1205.58665 1131.6,1209.24 C1130.07999,1212.89335 1127.97335,1216.10665 1125.28,1218.88 C1122.58665,1221.65335 1119.44002,1223.86666 1115.84,1225.52 C1112.23998,1227.17334 1108.36002,1228 1104.2,1228 L1081,1228 L1081,1167.68 Z M1155.02,1195.36 L1160.22,1195.36 C1165.98003,1195.36 1168.86,1192.85336 1168.86,1187.84 C1168.86,1182.82664 1165.98003,1180.32 1160.22,1180.32 L1155.02,1180.32 L1155.02,1195.36 Z M1155.02,1228 L1139.34,1228 L1139.34,1167.68 L1164.3,1167.68 C1171.07337,1167.68 1176.25998,1169.43998 1179.86,1172.96 C1183.46002,1176.48002 1185.26,1181.43997 1185.26,1187.84 C1185.26,1194.24003 1183.46002,1199.19998 1179.86,1202.72 C1176.25998,1206.24002 1171.07337,1208 1164.3,1208 L1155.02,1208 L1155.02,1228 Z M1204.72,1214.72 L1208.32,1214.72 C1211.04001,1214.72 1213.46666,1214.29334 1215.6,1213.44 C1217.73334,1212.58666 1219.53333,1211.41334 1221,1209.92 C1222.46667,1208.42666 1223.58666,1206.65334 1224.36,1204.6 C1225.13334,1202.54666 1225.52,1200.29335 1225.52,1197.84 C1225.52,1195.43999 1225.12,1193.20001 1224.32,1191.12 C1223.52,1189.03999 1222.38667,1187.25334 1220.92,1185.76 C1219.45333,1184.26666 1217.65334,1183.09334 1215.52,1182.24 C1213.38666,1181.38666 1210.98668,1180.96 1208.32,1180.96 L1204.72,1180.96 L1204.72,1214.72 Z M1189.04,1167.68 L1212.24,1167.68 C1216.34669,1167.68 1220.19998,1168.50666 1223.8,1170.16 C1227.40002,1171.81334 1230.54665,1174.01332 1233.24,1176.76 C1235.93335,1179.50668 1238.05333,1182.70665 1239.6,1186.36 C1241.14667,1190.01335 1241.92,1193.83998 1241.92,1197.84 C1241.92,1201.78669 1241.16001,1205.58665 1239.64,1209.24 C1238.11999,1212.89335 1236.01335,1216.10665 1233.32,1218.88 C1230.62665,1221.65335 1227.48002,1223.86666 1223.88,1225.52 C1220.27998,1227.17334 1216.40002,1228 1212.24,1228 L1189.04,1228 L1189.04,1167.68 Z M1285.72,1192.56 L1304.84,1167.68 L1324.2,1167.68 L1300.28,1196.24 L1326.44,1228 L1306.12,1228 L1285.72,1201.84 L1285.72,1228 L1270.04,1228 L1270.04,1167.68 L1285.72,1167.68 L1285.72,1192.56 Z M1361.66,1205.6 L1354.62,1185.52 L1347.58,1205.6 L1361.66,1205.6 Z M1365.82,1217.52 L1343.42,1217.52 L1339.82,1228 L1323.1,1228 L1346.06,1167.68 L1363.18,1167.68 L1386.14,1228 L1369.42,1228 L1365.82,1217.52 Z M1404.16,1215.84 L1407.6,1215.84 C1411.54669,1215.84 1414.37333,1215.33334 1416.08,1214.32 C1417.78668,1213.30666 1418.64,1211.68001 1418.64,1209.44 C1418.64,1207.19999 1417.78668,1205.57334 1416.08,1204.56 C1414.37333,1203.54666 1411.54669,1203.04 1407.6,1203.04 L1404.16,1203.04 L1404.16,1215.84 Z M1404.16,1191.36 L1407.04,1191.36 C1411.94669,1191.36 1414.4,1189.41335 1414.4,1185.52 C1414.4,1181.62665 1411.94669,1179.68 1407.04,1179.68 L1404.16,1179.68 L1404.16,1191.36 Z M1388.48,1167.68 L1411.84,1167.68 C1417.38669,1167.68 1421.59999,1169.01332 1424.48,1171.68 C1427.36001,1174.34668 1428.8,1178.18664 1428.8,1183.2 C1428.8,1186.24002 1428.25334,1188.75999 1427.16,1190.76 C1426.06666,1192.76001 1424.40001,1194.45333 1422.16,1195.84 C1424.40001,1196.26667 1426.30666,1196.92 1427.88,1197.8 C1429.45334,1198.68 1430.73333,1199.75999 1431.72,1201.04 C1432.70667,1202.32001 1433.41333,1203.75999 1433.84,1205.36 C1434.26667,1206.96001 1434.48,1208.66666 1434.48,1210.48 C1434.48,1213.30668 1433.98667,1215.81332 1433,1218 C1432.01333,1220.18668 1430.62668,1222.02666 1428.84,1223.52 C1427.05332,1225.01334 1424.88001,1226.13333 1422.32,1226.88 C1419.75999,1227.62667 1416.88002,1228 1413.68,1228 L1388.48,1228 L1388.48,1167.68 Z M1454.98,1167.68 L1454.98,1200.48 C1454.98,1202.24001 1455.04667,1204.03999 1455.18,1205.88 C1455.31333,1207.72001 1455.71333,1209.38666 1456.38,1210.88 C1457.04667,1212.37334 1458.09999,1213.58666 1459.54,1214.52 C1460.98001,1215.45334 1463.00665,1215.92 1465.62,1215.92 C1468.23335,1215.92 1470.24666,1215.45334 1471.66,1214.52 C1473.07334,1213.58666 1474.12666,1212.37334 1474.82,1210.88 C1475.51334,1209.38666 1475.92667,1207.72001 1476.06,1205.88 C1476.19333,1204.03999 1476.26,1202.24001 1476.26,1200.48 L1476.26,1167.68 L1491.86,1167.68 L1491.86,1202.64 C1491.86,1212.02671 1489.71336,1218.87998 1485.42,1223.2 C1481.12665,1227.52002 1474.52671,1229.68 1465.62,1229.68 C1456.71329,1229.68 1450.10002,1227.52002 1445.78,1223.2 C1441.45998,1218.87998 1439.3,1212.02671 1439.3,1202.64 L1439.3,1167.68 L1454.98,1167.68 Z M1515.64,1195.36 L1520.84,1195.36 C1526.60003,1195.36 1529.48,1192.85336 1529.48,1187.84 C1529.48,1182.82664 1526.60003,1180.32 1520.84,1180.32 L1515.64,1180.32 L1515.64,1195.36 Z M1515.64,1228 L1499.96,1228 L1499.96,1167.68 L1524.92,1167.68 C1531.69337,1167.68 1536.87998,1169.43998 1540.48,1172.96 C1544.08002,1176.48002 1545.88,1181.43997 1545.88,1187.84 C1545.88,1194.24003 1544.08002,1199.19998 1540.48,1202.72 C1536.87998,1206.24002 1531.69337,1208 1524.92,1208 L1515.64,1208 L1515.64,1228 Z M1579.1,1205.6 L1572.06,1185.52 L1565.02,1205.6 L1579.1,1205.6 Z M1583.26,1217.52 L1560.86,1217.52 L1557.26,1228 L1540.54,1228 L1563.5,1167.68 L1580.62,1167.68 L1603.58,1228 L1586.86,1228 L1583.26,1217.52 Z M1626.16,1180.96 L1626.16,1228 L1610.48,1228 L1610.48,1180.96 L1597.6,1180.96 L1597.6,1167.68 L1639.04,1167.68 L1639.04,1180.96 L1626.16,1180.96 Z M1675.78,1180.96 L1657.14,1180.96 L1657.14,1191.04 L1674.74,1191.04 L1674.74,1204.32 L1657.14,1204.32 L1657.14,1214.72 L1675.78,1214.72 L1675.78,1228 L1641.46,1228 L1641.46,1167.68 L1675.78,1167.68 L1675.78,1180.96 Z M1682.52,1228 L1682.52,1167.68 L1698.2,1167.68 L1727.16,1204.56 L1727.16,1167.68 L1742.76,1167.68 L1742.76,1228 L1727.16,1228 L1698.2,1191.12 L1698.2,1228 L1682.52,1228 Z M1802.88,1194.24 L1834,1194.24 C1834,1197.44002 1833.86667,1200.34665 1833.6,1202.96 C1833.33333,1205.57335 1832.8,1207.99999 1832,1210.24 C1830.87999,1213.38668 1829.36001,1216.17332 1827.44,1218.6 C1825.51999,1221.02668 1823.26668,1223.05333 1820.68,1224.68 C1818.09332,1226.30667 1815.25335,1227.54666 1812.16,1228.4 C1809.06665,1229.25334 1805.81335,1229.68 1802.4,1229.68 C1797.70664,1229.68 1793.42669,1228.90667 1789.56,1227.36 C1785.69331,1225.81333 1782.37335,1223.64001 1779.6,1220.84 C1776.82665,1218.03999 1774.66667,1214.68002 1773.12,1210.76 C1771.57333,1206.83998 1770.8,1202.50669 1770.8,1197.76 C1770.8,1193.06664 1771.55999,1188.76002 1773.08,1184.84 C1774.60001,1180.91998 1776.75999,1177.57335 1779.56,1174.8 C1782.36001,1172.02665 1785.73331,1169.86667 1789.68,1168.32 C1793.62669,1166.77333 1798.02664,1166 1802.88,1166 C1809.17337,1166 1814.69331,1167.35999 1819.44,1170.08 C1824.18669,1172.80001 1827.94665,1177.0133 1830.72,1182.72 L1815.84,1188.88 C1814.45333,1185.57332 1812.65334,1183.20001 1810.44,1181.76 C1808.22666,1180.31999 1805.70668,1179.6 1802.88,1179.6 C1800.53332,1179.6 1798.40001,1180.04 1796.48,1180.92 C1794.55999,1181.8 1792.92001,1183.05333 1791.56,1184.68 C1790.19999,1186.30667 1789.13334,1188.26666 1788.36,1190.56 C1787.58666,1192.85334 1787.2,1195.41332 1787.2,1198.24 C1787.2,1200.80001 1787.53333,1203.17332 1788.2,1205.36 C1788.86667,1207.54668 1789.86666,1209.43999 1791.2,1211.04 C1792.53334,1212.64001 1794.18666,1213.88 1796.16,1214.76 C1798.13334,1215.64 1800.42665,1216.08 1803.04,1216.08 C1804.58667,1216.08 1806.07999,1215.90667 1807.52,1215.56 C1808.96001,1215.21333 1810.25333,1214.65334 1811.4,1213.88 C1812.54667,1213.10666 1813.49333,1212.10667 1814.24,1210.88 C1814.98667,1209.65333 1815.49333,1208.16001 1815.76,1206.4 L1802.88,1206.4 L1802.88,1194.24 Z M1869.94,1205.6 L1862.9,1185.52 L1855.86,1205.6 L1869.94,1205.6 Z M1874.1,1217.52 L1851.7,1217.52 L1848.1,1228 L1831.38,1228 L1854.34,1167.68 L1871.46,1167.68 L1894.42,1228 L1877.7,1228 L1874.1,1217.52 Z M1912.44,1194.64 L1915.4,1194.64 C1918.49335,1194.64 1920.86666,1194.00001 1922.52,1192.72 C1924.17334,1191.43999 1925,1189.60001 1925,1187.2 C1925,1184.79999 1924.17334,1182.96001 1922.52,1181.68 C1920.86666,1180.39999 1918.49335,1179.76 1915.4,1179.76 L1912.44,1179.76 L1912.44,1194.64 Z M1946.92,1228 L1927.4,1228 L1912.44,1204.8 L1912.44,1228 L1896.76,1228 L1896.76,1167.68 L1921.16,1167.68 C1924.52002,1167.68 1927.45332,1168.17333 1929.96,1169.16 C1932.46668,1170.14667 1934.53333,1171.49332 1936.16,1173.2 C1937.78668,1174.90668 1939.01333,1176.87999 1939.84,1179.12 C1940.66667,1181.36001 1941.08,1183.75999 1941.08,1186.32 C1941.08,1190.90669 1939.97335,1194.62665 1937.76,1197.48 C1935.54666,1200.33335 1932.28002,1202.26666 1927.96,1203.28 L1946.92,1228 Z M1964.06,1167.68 L1964.06,1200.48 C1964.06,1202.24001 1964.12667,1204.03999 1964.26,1205.88 C1964.39333,1207.72001 1964.79333,1209.38666 1965.46,1210.88 C1966.12667,1212.37334 1967.17999,1213.58666 1968.62,1214.52 C1970.06001,1215.45334 1972.08665,1215.92 1974.7,1215.92 C1977.31335,1215.92 1979.32666,1215.45334 1980.74,1214.52 C1982.15334,1213.58666 1983.20666,1212.37334 1983.9,1210.88 C1984.59334,1209.38666 1985.00667,1207.72001 1985.14,1205.88 C1985.27333,1204.03999 1985.34,1202.24001 1985.34,1200.48 L1985.34,1167.68 L2000.94,1167.68 L2000.94,1202.64 C2000.94,1212.02671 1998.79336,1218.87998 1994.5,1223.2 C1990.20665,1227.52002 1983.60671,1229.68 1974.7,1229.68 C1965.79329,1229.68 1959.18002,1227.52002 1954.86,1223.2 C1950.53998,1218.87998 1948.38,1212.02671 1948.38,1202.64 L1948.38,1167.68 L1964.06,1167.68 Z M2031.92,1180.96 L2031.92,1228 L2016.24,1228 L2016.24,1180.96 L2003.36,1180.96 L2003.36,1167.68 L2044.8,1167.68 L2044.8,1180.96 L2031.92,1180.96 Z" id="DPD-KABUPATEN-GARUT" stroke="#FFFFFF" stroke-width="4" fill="#000000"></path>
            <path d="M1081,949 L1161.352,949 C1174.79207,949 1187.75194,951.063979 1200.232,955.192 C1212.71206,959.320021 1223.75195,965.607958 1233.352,974.056 C1242.95205,982.504042 1250.63197,993.111936 1256.392,1005.88 C1262.15203,1018.64806 1265.032,1033.67191 1265.032,1050.952 C1265.032,1068.42409 1261.72003,1083.54394 1255.096,1096.312 C1248.47197,1109.08006 1239.92805,1119.63996 1229.464,1127.992 C1218.99995,1136.34404 1207.38406,1142.58398 1194.616,1146.712 C1181.84794,1150.84002 1169.32006,1152.904 1157.032,1152.904 L1081,1152.904 L1081,949 Z M1144.36,1120.072 C1155.68806,1120.072 1166.39195,1118.77601 1176.472,1116.184 C1186.55205,1113.59199 1195.33596,1109.56003 1202.824,1104.088 C1210.31204,1098.61597 1216.21598,1091.51204 1220.536,1082.776 C1224.85602,1074.03996 1227.016,1063.43206 1227.016,1050.952 C1227.016,1038.66394 1225.09602,1028.10404 1221.256,1019.272 C1217.41598,1010.43996 1212.08803,1003.28803 1205.272,997.816 C1198.45597,992.343973 1190.39205,988.312013 1181.08,985.72 C1171.76795,983.127987 1161.54406,981.832 1150.408,981.832 L1117.288,981.832 L1117.288,1120.072 L1144.36,1120.072 Z M1349.2,949 L1380.592,949 L1468.432,1152.904 L1426.96,1152.904 L1407.952,1106.248 L1319.536,1106.248 L1301.104,1152.904 L1260.496,1152.904 L1349.2,949 Z M1395.28,1075.144 L1363.888,992.2 L1331.92,1075.144 L1395.28,1075.144 Z M1490.104,981.832 L1427.608,981.832 L1427.608,949 L1588.888,949 L1588.888,981.832 L1526.392,981.832 L1526.392,1152.904 L1490.104,1152.904 L1490.104,981.832 Z M1636.768,949 L1668.16,949 L1756,1152.904 L1714.528,1152.904 L1695.52,1106.248 L1607.104,1106.248 L1588.672,1152.904 L1548.064,1152.904 L1636.768,949 Z M1682.848,1075.144 L1651.456,992.2 L1619.488,1075.144 L1682.848,1075.144 Z" id="DATA" stroke="#FFFFFF" stroke-width="6" fill="#000000"></path>
            <path d="M1743.73925,978.145161 L1706,978.145161 L1706,952.362903 L1810.62366,952.362903 L1810.62366,978.145161 L1772.88441,978.145161 L1772.88441,1084.6371 L1743.73925,1084.6371 L1743.73925,978.145161 Z M1814.78058,952.362903 L1863.91633,952.362903 C1870.76672,952.362903 1877.24336,952.985657 1883.34644,954.231183 C1889.44952,955.476709 1894.77406,957.625209 1899.32023,960.676747 C1903.8664,963.728286 1907.47837,967.83846 1910.15625,973.007392 C1912.83413,978.176325 1914.17305,984.684101 1914.17305,992.530914 C1914.17305,1000.25317 1912.92754,1006.72981 1910.43649,1011.96102 C1907.94544,1017.19223 1904.5203,1021.36468 1900.16095,1024.47849 C1895.80161,1027.59231 1890.63276,1029.80308 1884.65423,1031.11089 C1878.67571,1032.41869 1872.19907,1033.07258 1865.22413,1033.07258 L1843.92574,1033.07258 L1843.92574,1084.6371 L1814.78058,1084.6371 L1814.78058,952.362903 Z M1843.92574,1008.41129 L1863.35585,1008.41129 C1865.97145,1008.41129 1868.4936,1008.16219 1870.92238,1007.66398 C1873.35115,1007.16577 1875.53079,1006.32505 1877.46136,1005.1418 C1879.39192,1003.95855 1880.94881,1002.33939 1882.13206,1000.28427 C1883.31531,998.229156 1883.90692,995.644729 1883.90692,992.530914 C1883.90692,989.167994 1883.12848,986.459016 1881.57157,984.403898 C1880.01467,982.34878 1878.02185,980.760758 1875.59308,979.639785 C1873.1643,978.518812 1870.45532,977.802645 1867.46606,977.491263 C1864.4768,977.179882 1861.61213,977.024194 1858.87198,977.024194 L1843.92574,977.024194 L1843.92574,1008.41129 Z M1987.26949,984.68414 C1984.90299,981.694878 1981.69581,979.484102 1977.64785,978.051747 C1973.59989,976.619392 1969.76996,975.903226 1966.15793,975.903226 C1964.04054,975.903226 1961.8609,976.152327 1959.61895,976.650538 C1957.37701,977.148748 1955.25964,977.92719 1953.2668,978.985887 C1951.27396,980.044584 1949.6548,981.44578 1948.40927,983.189516 C1947.16375,984.933252 1946.54099,987.050615 1946.54099,989.541667 C1946.54099,993.52735 1948.0356,996.578842 1951.02487,998.696237 C1954.01413,1000.81363 1957.78179,1002.61962 1962.32796,1004.11425 C1966.87413,1005.60888 1971.76274,1007.10349 1976.99395,1008.59812 C1982.22516,1010.09275 1987.11378,1012.21011 1991.65995,1014.95027 C1996.20612,1017.69043 1999.97378,1021.36467 2002.96304,1025.97312 C2005.9523,1030.58156 2007.44691,1036.74683 2007.44691,1044.46909 C2007.44691,1051.81769 2006.07685,1058.23205 2003.33669,1063.71237 C2000.59654,1069.19268 1996.89115,1073.73878 1992.22043,1077.35081 C1987.54971,1080.96283 1982.13175,1083.64067 1975.9664,1085.38441 C1969.80104,1087.12814 1963.29327,1088 1956.44288,1088 C1947.84875,1088 1939.8775,1086.69222 1932.5289,1084.07661 C1925.18029,1081.46101 1918.33001,1077.22628 1911.97782,1071.37231 L1932.71573,1048.5793 C1935.70499,1052.56498 1939.47265,1055.64761 1944.01882,1057.82728 C1948.56499,1060.00696 1953.26678,1061.09677 1958.12433,1061.09677 C1960.49083,1061.09677 1962.88843,1060.81654 1965.3172,1060.25605 C1967.74598,1059.69556 1969.92562,1058.85484 1971.85618,1057.73387 C1973.78675,1056.6129 1975.34363,1055.18056 1976.52688,1053.43683 C1977.71013,1051.69309 1978.30175,1049.638 1978.30175,1047.27151 C1978.30175,1043.28582 1976.776,1040.14092 1973.72446,1037.83669 C1970.67292,1035.53247 1966.84299,1033.5708 1962.23454,1031.95161 C1957.6261,1030.33243 1952.64407,1028.71327 1947.28831,1027.09409 C1941.93255,1025.4749 1936.95052,1023.29526 1932.34207,1020.55511 C1927.73362,1017.81495 1923.90369,1014.20298 1920.85215,1009.71909 C1917.80061,1005.23519 1916.27487,999.319033 1916.27487,991.97043 C1916.27487,984.870932 1917.67606,978.643396 1920.47849,973.287634 C1923.28093,967.931873 1927.01745,963.448047 1931.68817,959.836022 C1936.35889,956.223996 1941.74571,953.515018 1947.84879,951.709005 C1953.95187,949.902993 1960.24168,949 1966.71841,949 C1974.19157,949 1981.41551,950.058681 1988.39046,952.176075 C1995.3654,954.293469 2001.65521,957.843165 2007.26008,962.825269 L1987.26949,984.68414 Z" id="TPS" stroke="#FFFFFF" stroke-width="6" fill="#E12525"></path>
            <path d="M1085,725 L1161.032,725 C1169.86404,725 1178.74396,725.623994 1187.672,726.872 C1196.60004,728.120006 1204.61596,730.615981 1211.72,734.36 C1218.82404,738.104019 1224.58398,743.335966 1229,750.056 C1233.41602,756.776034 1235.624,765.703944 1235.624,776.84 C1235.624,788.360058 1232.40803,797.911962 1225.976,805.496 C1219.54397,813.080038 1211.04805,818.503984 1200.488,821.768 L1200.488,822.344 C1207.20803,823.304005 1213.30397,825.175986 1218.776,827.96 C1224.24803,830.744014 1228.95198,834.295978 1232.888,838.616 C1236.82402,842.936022 1239.84799,847.975971 1241.96,853.736 C1244.07201,859.496029 1245.128,865.639967 1245.128,872.168 C1245.128,882.920054 1242.82402,891.895964 1238.216,899.096 C1233.60798,906.296036 1227.65604,912.103978 1220.36,916.52 C1213.06396,920.936022 1204.85605,924.10399 1195.736,926.024 C1186.61595,927.94401 1177.54405,928.904 1168.52,928.904 L1085,928.904 L1085,725 Z M1129.928,806.504 L1162.472,806.504 C1165.92802,806.504 1169.33598,806.120004 1172.696,805.352 C1176.05602,804.583996 1179.07999,803.336009 1181.768,801.608 C1184.45601,799.879991 1186.61599,797.576014 1188.248,794.696 C1189.88001,791.815986 1190.696,788.36002 1190.696,784.328 C1190.696,780.103979 1189.78401,776.600014 1187.96,773.816 C1186.13599,771.031986 1183.78401,768.872008 1180.904,767.336 C1178.02399,765.799992 1174.76002,764.696003 1171.112,764.024 C1167.46398,763.351997 1163.91202,763.016 1160.456,763.016 L1129.928,763.016 L1129.928,806.504 Z M1129.928,890.888 L1170.248,890.888 C1173.70402,890.888 1177.20798,890.504004 1180.76,889.736 C1184.31202,888.967996 1187.52799,887.62401 1190.408,885.704 C1193.28801,883.78399 1195.63999,881.288015 1197.464,878.216 C1199.28801,875.143985 1200.2,871.400022 1200.2,866.984 C1200.2,862.183976 1199.00001,858.296015 1196.6,855.32 C1194.19999,852.343985 1191.17602,850.088008 1187.528,848.552 C1183.87998,847.015992 1179.94402,845.960003 1175.72,845.384 C1171.49598,844.807997 1167.56002,844.52 1163.912,844.52 L1129.928,844.52 L1129.928,890.888 Z M1322.384,725 L1359.536,725 L1448.24,928.904 L1397.552,928.904 L1379.984,885.704 L1300.784,885.704 L1283.792,928.904 L1234.256,928.904 L1322.384,725 Z M1339.664,784.328 L1314.896,847.688 L1364.72,847.688 L1339.664,784.328 Z M1452.344,725 L1528.088,725 C1538.64805,725 1548.63195,725.95999 1558.04,727.88 C1567.44805,729.80001 1575.65596,733.111976 1582.664,737.816 C1589.67204,742.520024 1595.23998,748.85596 1599.368,756.824 C1603.49602,764.79204 1605.56,774.82394 1605.56,786.92 C1605.56,798.82406 1603.64002,808.80796 1599.8,816.872 C1595.95998,824.93604 1590.68003,831.367976 1583.96,836.168 C1577.23997,840.968024 1569.27205,844.37599 1560.056,846.392 C1550.83995,848.40801 1540.85605,849.416 1530.104,849.416 L1497.272,849.416 L1497.272,928.904 L1452.344,928.904 L1452.344,725 Z M1497.272,811.4 L1527.224,811.4 C1531.25602,811.4 1535.14398,811.016004 1538.888,810.248 C1542.63202,809.479996 1545.99199,808.184009 1548.968,806.36 C1551.94401,804.535991 1554.34399,802.040016 1556.168,798.872 C1557.99201,795.703984 1558.904,791.720024 1558.904,786.92 C1558.904,781.735974 1557.70401,777.560016 1555.304,774.392 C1552.90399,771.223984 1549.83202,768.776009 1546.088,767.048 C1542.34398,765.319991 1538.16802,764.216002 1533.56,763.736 C1528.95198,763.255998 1524.53602,763.016 1520.312,763.016 L1497.272,763.016 L1497.272,811.4 Z M1616.864,725 L1661.792,725 L1661.792,928.904 L1616.864,928.904 L1616.864,725 Z M1688.072,725 L1733,725 L1733,887.432 L1816.232,887.432 L1816.232,928.904 L1688.072,928.904 L1688.072,725 Z M1996.592,850.28 C1996.592,862.37606 1994.76802,873.511949 1991.12,883.688 C1987.47198,893.864051 1982.04804,902.695963 1974.848,910.184 C1967.64796,917.672037 1958.67205,923.527979 1947.92,927.752 C1937.16795,931.976021 1924.78407,934.088 1910.768,934.088 C1896.55993,934.088 1884.08005,931.976021 1873.328,927.752 C1862.57595,923.527979 1853.60004,917.672037 1846.4,910.184 C1839.19996,902.695963 1833.77602,893.864051 1830.128,883.688 C1826.47998,873.511949 1824.656,862.37606 1824.656,850.28 L1824.656,725 L1869.584,725 L1869.584,848.552 C1869.584,854.888032 1870.59199,860.743973 1872.608,866.12 C1874.62401,871.496027 1877.45598,876.15198 1881.104,880.088 C1884.75202,884.02402 1889.11997,887.095989 1894.208,889.304 C1899.29603,891.512011 1904.81597,892.616 1910.768,892.616 C1916.72003,892.616 1922.19198,891.512011 1927.184,889.304 C1932.17602,887.095989 1936.49598,884.02402 1940.144,880.088 C1943.79202,876.15198 1946.62399,871.496027 1948.64,866.12 C1950.65601,860.743973 1951.664,854.888032 1951.664,848.552 L1951.664,725 L1996.592,725 L1996.592,850.28 Z" id="BAPILU" stroke="#FFFFFF" stroke-width="6" fill="#1A70D3"></path>
        </g>
    </g>
</svg>