<?xml version="1.0" encoding="UTF-8"?>
<svg width="961px" height="930px" viewBox="0 0 961 930" version="1.1" xmlns="http://www.w3.org/2000/svg" xmlns:xlink="http://www.w3.org/1999/xlink">
    <g id="Page-1" stroke="none" stroke-width="1" fill="none" fill-rule="evenodd">
        <path d="M-2.27373675e-13,0 L961,0 L961,930 L499.584262,930 L532.205354,899.040364 L612.334624,899.040364 L719.997663,860.446151 C666.190007,863.704241 637.40382,854.605197 633.6391,833.149019 C628.697802,801.402218 636.494721,667.245552 621.994135,662.093436 C610.711651,658.084724 584.809407,701.12636 560.303717,735.123488 C562.846044,685.192547 630.152693,603.348648 576.49336,558.816967 C585.797111,558.910849 602.774456,559.460808 627.425397,560.466844 L658.249766,525.498617 C649.426535,557.435126 642.793973,581.518886 638.352082,597.749899 C643.491699,665.654837 729.039489,649.78852 755.859157,607.024207 C748.607475,574.447968 736.338077,520.271533 719.050962,444.494902 L510.573212,444.494902 L398.224374,693.030317 L-2.27373675e-13,822.887304 L-2.27373675e-13,396.219572 L73.0184993,396.219572 L73.0184993,319.246355 C116.122885,320.726567 146.813276,314.627548 165.089672,300.949298 C183.366068,287.271049 191.476535,262.575855 189.421073,226.863716 C187.053531,177.164585 158.778922,151.66061 104.597245,150.351791 C73.9685676,150.351791 39.1028192,150.351791 -2.27373675e-13,150.351791 L-2.27373675e-13,0 Z M73,211 L93.3659936,211 C105.956062,211 112.744727,217.880937 113.731987,231.64281 C114.719248,245.404683 107.930583,254.104267 93.3659936,257.74156 L73,257.74156 L73,211 Z M832.168795,761.862544 C773.377756,761.862544 725.895594,761.862544 689.722309,761.862544 C674.283563,764.816377 666.503631,777.932011 665.779807,793.28862 C665.055982,808.645229 673.113501,828.687169 686.50193,830.185866 C718.363756,830.743441 762.655632,830.743441 819.37756,830.185866 L832.168795,761.862544 Z M837.87233,744.264481 L851.900529,665.345636 C783.902001,664.821908 728.491873,664.493472 685.670145,664.36033 C672.456471,664.485513 663.679425,684.365431 663.365875,704.312405 C663.052324,724.25938 671.322589,744.264481 684.414115,744.264481 C722.349032,744.264481 773.50177,744.264481 837.87233,744.264481 Z M849.211154,560.527238 L768.150501,560.527238 C772.285156,578.705054 775.799203,595.798916 778.692641,611.808824 C780.346792,620.097912 771.383791,631.043478 751.803637,644.645522 L850.163381,644.645522 L849.211154,560.527238 Z M844.110338,458.090943 L743.061816,459.125445 L761.91451,538.471798 L844.110338,538.471798 L844.110338,458.090943 Z M593.862888,93.3390102 C664.120171,96.1738358 734.669635,131.300247 772.468053,167.318814 C767.101735,141.631413 755.784736,71.8202081 709.497454,52.3266001 C663.210172,32.8329921 601.771851,79.5462789 593.862888,93.3390102 Z M639.29176,167.678007 C675.994242,178.417925 708.602214,206.236878 723.80975,230.217481 C724.357655,215.955922 727.570823,177.626844 705.709393,161.249722 C683.847963,144.8726 645.280148,161.440051 639.29176,167.678007 Z M765.648306,213.557198 C741.941435,243.563902 703.93299,263.376324 676.001719,268.493214 C689.019558,274.343697 723.353986,291.68122 746.728025,277.546633 C770.102064,263.412046 769.188749,221.446314 765.648306,213.557198 Z M523.542027,276.464938 C551.366523,211.890025 609.442519,158.614606 656.61449,136.234642 C630.710119,132.038991 561.480095,117.586221 526.693366,153.813237 C491.906636,190.040254 513.499721,264.138412 523.542027,276.464938 Z M685.062598,401.97633 C630.658678,357.430449 595.454972,286.919522 586.944328,235.40616 C575.770997,259.150561 542.795722,321.715008 568.030843,365.139678 C593.265964,408.564347 670.445547,408.231962 685.062598,401.97633 Z M845.904344,282.181048 C788.795556,323.201877 711.575842,338.956474 659.615038,333.844486 C679.658497,350.782599 731.556483,398.827139 780.032823,385.691015 C828.509163,372.554892 848.163649,297.919112 845.904344,282.181048 Z M786.078622,97.1433059 C807.444163,164.133124 798.565472,242.441875 777.64691,290.279845 C799.949782,276.451547 861.680215,241.940208 864.167032,191.777184 C866.653848,141.61416 801.744574,99.8579079 786.078622,97.1433059 Z M665.842057,306.900697 C649.868581,272.154962 649.471057,229.294538 657.592406,202.084574 C646.469613,211.027489 615.434263,233.748619 617.41668,260.992008 C619.399098,288.235397 657.205475,306.473671 665.842057,306.900697 Z M394,150 L394,395 L470,395 L470,150 L394,150 Z M214.894974,305.394607 L195.282411,368.557419 C231.153095,399.061232 272.479127,407.658555 319.260507,394.349388 C378.773005,373.936101 386.2921,310.969565 369.292273,275.579627 C351.549408,243.202868 309.981127,240.007302 294.536465,232.830621 C268.463903,221.497396 285.651386,204.441784 298.548638,204.441784 C312.35655,203.733122 329.17674,210.219749 349.009208,223.901664 L371.978904,163.980382 C329.161226,141.546203 289.348833,138.116625 252.541724,153.691647 C176.341379,195.405447 201.239229,267.415687 231.026396,286.223153 C252.541724,298.596577 263.490881,301.650617 283.630658,307.060843 C317.735396,314.776214 297.498454,339.288319 283.630658,339.204853 C257.923395,340.010633 235.0115,328.740551 214.894974,305.394607 Z" id="logo" fill="#E12525"></path>
    </g>
</svg>