<?xml version="1.0" standalone="no"?>
<!DOCTYPE svg PUBLIC "-//W3C//DTD SVG 20010904//EN"
 "http://www.w3.org/TR/2001/REC-SVG-20010904/DTD/svg10.dtd">
<svg version="1.0" xmlns="http://www.w3.org/2000/svg"
 width="961.000000pt" height="961.000000pt" viewBox="0 0 961.000000 961.000000"
 preserveAspectRatio="xMidYMid meet">
<metadata>
Created by potrace 1.11, written by Peter Selinger 2001-2013
</metadata>
<g transform="translate(0.000000,961.000000) scale(0.100000,-0.100000)"
fill="#000000" stroke="none">
<path d="M2 8708 l3 -752 575 -2 c316 -1 591 -5 610 -7 272 -41 432 -122 557
-283 20 -26 77 -134 93 -179 39 -103 58 -253 54 -420 -3 -125 -15 -240 -24
-240 -1 0 -3 -9 -4 -20 -7 -49 -58 -168 -94 -222 -33 -48 -95 -112 -147 -151
-43 -32 -180 -90 -251 -107 -188 -45 -291 -57 -514 -59 l-125 -1 -3 -382 -2
-383 -23 -1 c-12 0 -176 0 -364 -1 l-343 0 0 -2133 0 -2133 43 13 c23 7 141
46 262 86 121 40 225 74 230 75 20 4 301 96 340 111 22 8 47 16 55 18 8 2 47
14 87 28 39 14 74 23 77 19 3 -3 6 1 6 8 0 7 2 11 5 8 3 -3 65 14 138 39 73
24 139 46 147 48 8 2 65 20 125 40 61 20 117 38 125 40 8 2 16 4 18 5 1 2 7 4
12 5 6 1 11 3 13 5 1 1 9 3 17 5 8 2 29 8 45 14 80 29 251 84 263 84 6 0 12 3
12 7 0 4 6 7 13 7 6 0 64 17 127 38 63 21 121 38 128 38 6 0 12 4 12 9 0 4 6
8 14 8 7 0 76 21 152 46 77 25 146 47 154 49 8 2 69 22 135 45 66 22 127 43
135 44 8 2 44 14 80 26 36 12 70 23 75 24 6 1 152 49 325 105 173 57 380 125
460 150 l145 47 30 60 c17 32 41 84 54 114 14 30 40 88 58 127 19 40 34 76 35
80 1 5 11 28 23 53 13 25 30 63 40 85 9 22 26 57 37 77 10 21 16 38 11 38 -4
0 -3 4 2 8 9 6 49 86 51 102 0 3 17 41 38 85 21 44 56 121 78 170 22 50 50
113 63 140 12 28 33 73 45 100 12 28 38 83 56 123 19 41 34 75 34 77 0 2 20
45 44 97 41 89 98 214 146 323 12 28 36 78 52 113 40 87 52 116 50 125 -1 4 2
7 8 7 5 0 10 4 10 9 0 5 6 24 14 42 8 19 15 39 16 44 1 6 10 21 20 35 9 14 21
36 25 50 4 14 27 66 50 115 l42 90 1039 -1 c571 -1 1041 -2 1044 -3 3 0 6 -9
7 -18 0 -10 3 -27 6 -38 18 -71 49 -203 52 -220 2 -11 6 -31 9 -45 13 -59 17
-76 22 -100 3 -14 9 -41 14 -60 5 -19 11 -46 14 -60 5 -26 7 -35 25 -110 5
-25 17 -74 25 -110 8 -36 18 -80 21 -99 3 -19 8 -37 10 -41 2 -4 7 -22 10 -41
3 -19 13 -61 22 -94 8 -33 17 -73 20 -90 3 -16 6 -34 7 -40 1 -5 5 -16 9 -22
5 -7 6 -13 4 -13 -2 0 2 -26 10 -57 8 -32 15 -67 17 -78 2 -11 9 -42 16 -70
18 -75 21 -88 26 -115 3 -14 9 -42 14 -62 7 -33 4 -43 -22 -79 -17 -23 -51
-62 -77 -87 -47 -46 -185 -142 -204 -142 -6 0 -18 -7 -27 -15 -10 -9 -26 -17
-36 -20 -11 -2 -39 -11 -63 -19 -110 -40 -276 -54 -376 -32 -52 12 -145 48
-145 57 0 5 -6 9 -13 9 -19 0 -93 74 -124 124 -43 67 -75 172 -75 246 -1 28 4
50 27 135 20 72 22 78 24 87 1 4 8 25 16 47 7 22 16 55 19 74 3 19 10 47 17
63 6 16 12 37 14 46 2 9 13 51 25 93 12 42 23 84 25 93 2 9 8 30 14 46 21 53
1 43 -59 -31 -24 -29 -111 -128 -178 -201 -17 -20 -32 -39 -32 -42 0 -13 -46
-26 -85 -24 -22 1 -121 5 -221 7 -99 3 -184 7 -190 8 -31 6 -27 -7 17 -54 54
-56 124 -186 136 -252 17 -89 8 -299 -17 -383 -5 -18 -7 -32 -5 -32 2 0 -3
-16 -11 -35 -8 -19 -12 -35 -9 -35 3 0 -2 -14 -11 -31 -8 -17 -11 -28 -6 -25
6 4 3 -8 -6 -26 -9 -18 -17 -40 -19 -48 -1 -8 -6 -23 -12 -35 -10 -20 -51
-132 -55 -150 -2 -5 -8 -21 -13 -35 -19 -45 -95 -240 -98 -252 -2 -5 -3 -9 -5
-10 -1 -2 -3 -10 -5 -18 -3 -8 -18 -60 -35 -114 -17 -55 -33 -122 -36 -150 -4
-28 -8 -54 -11 -58 -2 -5 0 -8 4 -8 5 0 17 15 28 33 10 17 27 41 37 51 10 11
18 25 18 32 0 7 3 14 8 16 10 4 107 141 107 151 0 4 5 11 10 15 6 4 44 54 85
112 41 58 79 110 85 117 5 6 20 24 32 40 29 38 105 115 129 131 33 22 43 24
68 18 41 -10 65 -92 81 -276 8 -95 18 -487 19 -747 1 -161 5 -293 9 -293 5 0
5 -5 1 -12 -5 -7 -7 -26 -6 -43 0 -16 3 -84 6 -150 2 -66 7 -142 11 -168 17
-133 124 -224 309 -262 16 -3 32 -8 36 -10 16 -10 163 -19 317 -20 190 0 199
-6 78 -44 -38 -13 -83 -28 -100 -35 -16 -7 -57 -22 -90 -34 -75 -26 -315 -112
-335 -119 -8 -4 -17 -7 -20 -8 -3 -1 -12 -4 -20 -8 -8 -3 -62 -22 -120 -43
-58 -20 -141 -49 -185 -65 l-80 -28 -401 -1 -402 0 -92 -88 c-51 -48 -124
-117 -163 -154 l-71 -68 2307 0 2307 0 0 4650 0 4650 -4805 0 -4805 0 2 -752z
m7003 255 c217 -54 385 -212 515 -487 43 -89 110 -272 124 -338 3 -12 12 -50
21 -83 45 -178 61 -285 37 -249 -4 6 -47 43 -97 82 -49 40 -96 77 -102 82 -7
6 -54 37 -105 70 -51 32 -97 63 -103 67 -5 4 -26 16 -45 25 -19 10 -64 33 -99
53 -35 19 -70 35 -77 35 -7 0 -14 4 -16 8 -11 29 -465 195 -623 227 -11 3 -40
9 -65 15 -25 6 -59 13 -75 15 -17 2 -30 4 -30 5 0 7 -225 32 -302 33 -16 1
-20 5 -13 17 13 24 71 82 120 120 25 19 47 37 50 40 17 17 138 94 210 133 84
45 240 110 240 100 0 -3 6 -1 13 5 6 5 26 12 42 16 67 13 92 17 140 23 28 3
51 6 52 7 8 6 138 -8 188 -21z m970 -521 c61 -32 214 -134 264 -176 106 -90
243 -248 300 -346 57 -98 88 -192 97 -294 3 -33 7 -63 10 -68 3 -4 2 -8 -3 -8
-4 0 -8 -15 -7 -32 1 -27 -14 -105 -30 -153 -50 -156 -190 -341 -371 -491 -33
-27 -66 -55 -74 -62 -23 -22 -234 -162 -371 -247 -10 -6 -12 -4 -5 11 4 10 25
69 46 129 21 61 39 110 40 110 1 0 6 21 12 55 3 14 6 25 7 25 2 0 10 36 12 58
1 9 6 17 11 17 4 0 6 3 4 8 -3 4 3 50 14 102 10 52 21 120 24 150 3 31 7 67
10 80 22 114 22 526 0 685 -3 17 -7 53 -10 80 -3 28 -18 102 -32 165 -14 63
-28 128 -31 144 -2 16 -10 40 -18 54 -7 13 -10 30 -7 38 6 15 29 8 108 -34z
m-1730 -297 c22 -4 56 -8 75 -9 19 -1 44 -5 55 -9 11 -3 43 -8 70 -12 28 -3
65 -9 83 -13 l34 -7 -68 -35 c-37 -19 -86 -47 -108 -62 -23 -15 -45 -28 -49
-28 -4 0 -13 -5 -20 -10 -7 -6 -42 -32 -78 -58 -118 -84 -201 -149 -207 -164
-2 -5 -8 -8 -14 -8 -6 0 -78 -69 -162 -153 -157 -159 -194 -199 -242 -263 -16
-22 -31 -41 -34 -44 -32 -31 -230 -329 -230 -346 0 -3 -11 -22 -25 -44 -14
-22 -25 -46 -25 -55 0 -8 -4 -15 -10 -15 -5 0 -10 -4 -10 -9 0 -5 -9 -29 -21
-55 -21 -50 -30 -49 -56 4 -40 81 -98 285 -108 379 -26 231 -21 365 17 506 6
22 12 45 14 51 5 28 70 145 106 192 75 97 200 180 339 226 78 25 106 31 194
42 28 4 52 8 54 10 6 6 383 -4 426 -11z m-3075 -139 c48 -8 204 -42 230 -51
12 -4 47 -17 65 -25 11 -5 38 -15 60 -22 22 -7 64 -25 94 -40 30 -16 59 -28
63 -28 5 0 15 -6 22 -12 11 -11 10 -21 -6 -63 -11 -27 -21 -54 -23 -60 -1 -5
-7 -23 -13 -38 -7 -16 -12 -31 -12 -34 0 -3 -7 -19 -15 -36 -23 -51 -107 -271
-108 -284 0 -7 -4 -13 -9 -13 -4 0 -7 -3 -6 -7 3 -18 -15 -63 -26 -63 -6 0
-45 21 -85 46 -93 57 -261 134 -261 119 0 -2 -17 2 -37 9 -34 12 -97 13 -158
3 -62 -10 -123 -65 -131 -117 -5 -30 21 -100 36 -100 4 0 15 -8 26 -18 32 -29
52 -36 344 -129 47 -15 120 -44 163 -65 43 -21 81 -38 85 -38 4 0 14 -9 22
-20 8 -11 18 -20 23 -20 10 0 26 -13 78 -64 65 -63 124 -159 135 -220 3 -17
10 -34 17 -38 6 -4 9 -10 5 -13 -3 -3 0 -32 7 -63 17 -72 17 -278 0 -343 -7
-27 -11 -49 -8 -49 3 0 0 -7 -7 -15 -7 -8 -10 -15 -6 -15 14 0 -51 -151 -99
-225 -23 -36 -117 -149 -128 -154 -4 -1 -16 -11 -25 -21 -28 -29 -119 -87
-180 -115 -31 -15 -64 -31 -73 -35 -16 -9 -86 -29 -124 -36 -11 -2 -42 -8 -70
-14 -181 -36 -384 -30 -575 19 -90 22 -296 115 -347 156 -6 6 -44 33 -82 60
-77 55 -82 66 -56 132 11 30 35 106 50 163 1 3 4 12 8 20 3 8 20 62 37 120 17
58 34 114 38 125 3 11 6 22 7 25 0 3 3 10 6 15 8 13 23 68 21 78 -4 17 18 5
44 -26 132 -154 361 -279 533 -292 35 -2 66 -7 69 -9 2 -3 13 -1 23 5 12 6 19
6 19 0 0 -13 17 -9 70 16 58 28 92 60 110 103 17 40 17 55 2 92 -17 41 -92 90
-157 101 -11 2 -27 7 -35 10 -8 3 -42 14 -75 23 -125 34 -241 77 -308 115 -10
5 -46 24 -80 41 -64 32 -207 165 -207 192 0 8 -4 16 -9 18 -18 7 -82 152 -97
222 -21 92 -25 242 -10 321 10 52 50 165 58 165 5 0 8 8 8 18 1 38 140 212
219 273 25 19 49 39 56 44 19 18 74 55 81 55 3 0 18 9 33 19 34 24 118 57 196
77 33 8 69 17 80 20 11 3 40 7 64 9 24 3 45 6 47 8 6 6 248 0 294 -7z m1532
-111 c1 -36 -1 -65 -5 -65 -4 0 -3 -9 3 -20 8 -14 8 -20 0 -20 -8 0 -8 -6 0
-20 8 -14 8 -20 0 -20 -8 0 -8 -6 0 -20 8 -14 8 -20 0 -20 -8 0 -8 -6 0 -20 8
-14 8 -20 0 -20 -8 0 -8 -6 0 -20 8 -14 8 -20 0 -20 -8 0 -8 -6 0 -20 8 -14 8
-20 0 -20 -8 0 -8 -6 0 -20 6 -11 7 -20 3 -20 -4 0 -6 -36 -3 -80 3 -44 1 -80
-3 -80 -4 0 -3 -9 3 -20 6 -11 7 -20 3 -20 -4 0 -6 -36 -3 -80 3 -44 1 -80 -3
-80 -4 0 -3 -9 3 -20 8 -14 8 -20 0 -20 -8 0 -8 -6 0 -20 8 -14 8 -20 0 -20
-8 0 -8 -6 0 -20 8 -14 8 -20 0 -20 -8 0 -8 -6 0 -20 8 -14 8 -20 0 -20 -8 0
-8 -6 0 -20 8 -14 8 -20 0 -20 -8 0 -8 -6 0 -20 8 -14 8 -20 0 -20 -8 0 -8 -6
0 -20 6 -11 7 -20 3 -20 -4 0 -6 -36 -3 -80 3 -44 1 -80 -3 -80 -4 0 -3 -9 3
-20 6 -11 7 -20 3 -20 -4 0 -6 -36 -3 -80 3 -44 1 -80 -3 -80 -4 0 -3 -9 3
-20 8 -14 8 -20 0 -20 -8 0 -8 -6 0 -20 8 -14 8 -20 0 -20 -8 0 -8 -6 0 -20 8
-14 8 -20 0 -20 -8 0 -8 -6 0 -20 8 -14 8 -20 0 -20 -8 0 -8 -6 0 -20 8 -14 8
-20 0 -20 -8 0 -8 -6 0 -20 8 -14 8 -20 0 -20 -8 0 -8 -6 0 -20 6 -11 7 -20 3
-20 -4 0 -6 -36 -3 -80 3 -44 1 -80 -3 -80 -4 0 -3 -9 3 -20 6 -11 7 -20 3
-20 -4 0 -6 -36 -3 -80 3 -44 1 -80 -3 -80 -4 0 -3 -9 3 -20 8 -14 8 -20 0
-20 -8 0 -8 -6 0 -20 8 -14 8 -20 0 -20 -8 0 -8 -6 0 -20 8 -14 8 -20 0 -20
-8 0 -8 -6 0 -20 8 -14 8 -20 0 -20 -8 0 -8 -6 0 -20 8 -14 8 -20 0 -20 -8 0
-8 -6 0 -20 8 -14 8 -20 0 -20 -8 0 -8 -6 0 -20 6 -11 7 -20 3 -20 -4 0 -6
-27 -5 -60 l4 -60 -381 0 -381 0 0 1190 c0 654 0 1193 -1 1197 -1 4 -1 20 0
36 l1 27 379 0 379 0 4 -65z m2226 11 c6 -4 21 -9 33 -11 42 -8 169 -98 169
-120 0 -4 9 -19 20 -34 43 -61 76 -179 86 -313 7 -82 7 -97 5 -211 l-1 -59
-47 64 c-44 59 -197 218 -253 263 -83 66 -214 155 -229 155 -5 0 -11 4 -13 8
-4 11 -148 79 -227 108 -35 13 -65 25 -68 27 -7 8 48 42 107 67 63 26 137 48
195 56 22 4 41 7 43 9 6 6 169 -2 180 -9z m-358 -491 c-7 -8 -10 -15 -7 -15 3
0 1 -15 -4 -32 -43 -147 -44 -467 -2 -653 4 -16 7 -32 8 -35 11 -62 31 -130
39 -130 5 0 7 -3 3 -6 -7 -7 19 -80 51 -147 6 -12 -47 3 -113 33 -63 29 -141
78 -185 117 -14 12 -34 30 -46 40 -30 26 -91 109 -108 146 -85 192 3 393 275
630 17 15 33 27 36 27 2 0 13 9 25 20 25 23 46 27 28 5z m1096 -119 c7 -19 11
-205 5 -212 -3 -3 -6 -17 -7 -32 0 -15 -4 -39 -8 -53 -4 -14 -8 -32 -10 -40
-12 -73 -65 -170 -123 -227 -51 -49 -86 -69 -155 -87 -47 -12 -197 -12 -245
-1 -13 4 -33 8 -45 11 -41 9 -150 46 -192 65 -22 10 -59 26 -81 35 l-40 17 95
29 c52 17 101 31 108 31 6 1 12 4 12 8 0 4 6 7 13 7 6 0 50 18 97 41 47 23 90
42 95 43 6 1 23 12 38 25 16 13 32 24 37 24 5 0 15 6 22 13 8 6 25 19 40 27
62 36 149 110 243 207 44 45 84 83 88 83 4 0 10 -6 13 -14z m-1771 -309 c30
-132 90 -318 126 -389 5 -10 9 -25 9 -33 0 -8 5 -15 12 -15 6 0 8 -3 5 -7 -4
-3 0 -17 8 -30 9 -13 13 -23 11 -23 -6 0 108 -221 152 -295 86 -144 202 -309
298 -421 73 -87 249 -265 294 -299 45 -33 41 -41 -32 -52 -56 -10 -320 -9
-378 0 -25 4 -58 10 -75 12 -16 2 -41 7 -55 10 -14 4 -32 8 -40 10 -8 1 -22 4
-30 7 -8 3 -40 13 -70 22 -71 22 -230 97 -230 108 0 4 -6 8 -13 8 -20 0 -122
95 -172 161 -25 32 -45 61 -45 64 0 3 -9 24 -19 48 -23 48 -52 147 -45 147 3
0 2 6 -3 13 -18 28 -17 248 1 342 4 17 11 53 17 80 11 57 78 275 89 290 3 6
15 33 25 60 10 28 33 80 51 118 18 37 33 68 33 70 0 7 47 104 49 102 2 -1 14
-50 27 -108z m2568 -371 c3 -8 3 -17 0 -20 -4 -3 -7 -21 -8 -38 -1 -18 -5 -46
-8 -63 -4 -16 -9 -39 -11 -50 -9 -48 -55 -195 -70 -223 -9 -18 -14 -32 -12
-32 6 0 -84 -183 -94 -190 -3 -3 -18 -25 -32 -50 -82 -140 -242 -280 -378
-329 -104 -39 -276 -48 -385 -22 -83 19 -160 45 -167 55 -4 6 -8 7 -8 2 0 -5
-7 -3 -15 4 -8 7 -15 10 -15 6 0 -16 -290 154 -359 210 -9 7 -43 33 -76 58
-33 24 -97 76 -141 114 l-82 69 177 0 c159 -1 220 2 346 17 88 11 160 22 160
26 0 1 16 3 37 6 20 2 72 14 115 25 43 11 85 22 93 24 80 17 296 88 343 111
15 8 27 12 27 9 0 -3 11 2 24 11 14 8 26 15 28 13 11 -8 295 137 331 169 9 8
17 12 17 8 0 -3 33 16 73 44 79 55 82 56 90 36z m-870 -1750 c3 3 194 7 426 9
309 2 421 0 424 -9 2 -6 1 -20 -3 -31 -4 -11 -3 -30 1 -43 6 -14 5 -31 -1 -43
-6 -11 -8 -24 -4 -30 9 -15 9 -444 0 -458 -4 -6 -4 -16 0 -23 8 -13 9 -142 1
-155 -8 -12 -804 -10 -815 2 -7 8 -21 61 -38 140 -1 6 -7 30 -14 55 -7 25 -14
54 -16 65 -2 11 -6 29 -9 40 -2 11 -6 30 -9 43 -3 13 -8 32 -11 42 -3 10 -8
28 -10 39 -3 12 -7 31 -10 44 -3 12 -7 31 -9 42 -2 11 -9 40 -16 65 -7 25 -14
54 -16 65 -2 11 -8 38 -13 60 -22 94 -26 84 35 84 31 -1 58 1 61 5 3 3 13 1
23 -4 10 -5 20 -7 23 -4z m898 -1046 c0 -19 2 -208 5 -421 l4 -385 -489 0
c-342 0 -485 3 -477 10 6 6 36 30 67 54 109 82 172 159 184 224 4 20 -12 123
-35 228 -6 25 -12 59 -15 75 -2 17 -15 77 -28 135 -13 58 -20 107 -16 110 5 3
186 6 404 5 l395 0 1 -35z m-555 -1013 c3 -2 22 -1 42 3 21 4 47 3 58 0 10 -4
29 -4 41 1 12 5 24 5 27 1 3 -5 17 -7 33 -6 44 4 72 4 163 1 47 -1 95 0 106 4
12 4 25 5 29 1 3 -4 23 -7 43 -7 42 0 42 3 17 -125 -2 -14 -7 -41 -9 -60 -3
-19 -8 -46 -11 -60 -3 -14 -7 -38 -10 -55 -4 -29 -10 -60 -21 -115 -3 -14 -7
-38 -9 -55 -7 -43 -14 -86 -20 -115 -3 -14 -8 -41 -11 -60 -4 -19 -8 -44 -10
-55 -3 -11 -7 -33 -10 -49 -2 -16 -6 -32 -8 -35 -6 -8 -1513 -6 -1557 3 -22 4
-50 20 -70 40 -43 43 -62 66 -53 66 3 0 2 6 -4 13 -14 17 -39 94 -48 148 -24
136 10 348 68 424 42 55 62 74 87 87 25 12 120 14 581 12 303 -1 554 -4 556
-7z m378 -1004 c-8 -47 -12 -68 -14 -68 -1 0 -3 -12 -5 -26 -2 -15 -6 -44 -10
-65 -4 -22 -9 -48 -10 -59 -2 -11 -6 -31 -10 -45 -3 -14 -9 -50 -15 -80 -5
-30 -11 -64 -13 -75 -3 -11 -13 -66 -23 -122 l-18 -101 -61 -4 c-33 -2 -330
-3 -660 -2 -417 1 -612 4 -641 12 -44 13 -86 53 -121 117 -22 42 -56 145 -47
145 3 0 2 5 -2 12 -9 15 -4 163 6 163 1 0 4 11 6 25 13 72 79 152 154 188 45
21 49 21 767 22 l723 0 -6 -37z"/>
<path d="M730 7116 l0 -235 113 3 c108 2 136 5 147 16 3 3 20 13 39 24 88 49
117 127 100 273 -5 46 -48 105 -95 129 -35 17 -62 21 -173 23 l-131 2 0 -235z"/>
</g>
</svg>
